# xmcd
# 
# Track frame offsets:
#     150
#     38892
#     68536
#     101182
#     179036
#     232148
# 
# Disc length: 3664
# 
# Revision: 1
# Processed by: cddbd v1.5.2PL0 Copyright (c) Steve Scherf et al.
# Submitted via: BonkEnc v1.0.8
# 
DISCID=530e4e06
DTITLE=Gerd Dudek - 'Smatter
DYEAR=1998
DGENRE=Contemporary Jazz
TTITLE0=Phrase Three
TTITLE1=Ma Bel
TTITLE2='Smatter
TTITLE3=Body And Soul
TTITLE4=By George
TTITLE5=The Peacocks
EXTD=YEAR: 2002
EXTT0=
EXTT1=
EXTT2=
EXTT3=
EXTT4=
EXTT5=
PLAYORDER=
